<svg width="32" height="32" viewBox="0 0 32 32" fill="none" xmlns="http://www.w3.org/2000/svg">
<rect width="32" height="32" rx="8" fill="#F93F06"/>
<g clip-path="url(#clip0_2782_695)">
<rect width="10.6667" height="20.6667" transform="translate(10 5.33325)" fill="#F93F06"/>
<path d="M10.5894 22.2317C11.2286 21.6464 12.1902 21.5844 12.9295 22.051C13.3186 22.2965 13.7299 22.4286 14.2052 22.4286C15.2585 22.4286 15.9255 21.7381 15.9255 20.3814V12.5188C15.9255 11.4048 16.8566 10.5039 18.0016 10.5039C19.1494 10.5039 20.0777 11.4075 20.0777 12.5188V20.403C20.0777 22.2398 19.6052 23.5345 18.5936 24.5163C17.6042 25.4766 16.184 25.9999 14.4609 25.9999C12.9656 25.9999 11.7984 25.6546 10.8757 25.099C9.83345 24.4705 9.69727 23.0517 10.5866 22.2344L10.5894 22.2317Z" fill="white"/>
<path d="M19.8863 9.74416C20.9261 8.73504 20.9261 7.09894 19.8863 6.08982C18.8465 5.0807 17.1607 5.08071 16.121 6.08982C15.0812 7.09894 15.0812 8.73504 16.121 9.74416C17.1607 10.7533 18.8465 10.7533 19.8863 9.74416Z" fill="black"/>
</g>
<defs>
<clipPath id="clip0_2782_695">
<rect width="10.6667" height="20.6667" fill="white" transform="translate(10 5.33325)"/>
</clipPath>
</defs>
</svg>
