<svg width="152" height="69" viewBox="0 0 152 69" fill="none" xmlns="http://www.w3.org/2000/svg">
<path d="M130.563 23.772C127.783 23.772 125.174 24.2412 122.81 25.0768V10.6142C122.81 7.01509 119.86 4.10498 116.228 4.10498H115.45C112.122 4.10498 109.417 6.77319 109.417 10.0718V38.0074C105.919 32.1505 99.2703 28.1702 91.0951 28.1702C88.3157 28.1702 85.7068 28.6393 83.3424 29.475V15.0124C83.3424 11.4132 80.3926 8.50313 76.7608 8.50313H75.9825C72.6472 8.50313 69.9494 11.1713 69.9494 14.4699V30.9117C66.3769 25.326 59.8768 21.573 51.9314 21.573C43.3337 21.573 36.4037 25.9931 33.024 32.3338V23.9773C33.024 20.2608 29.9778 17.2481 26.22 17.2481C22.4622 17.2481 19.416 20.2608 19.416 23.9773V50.2269C19.416 54.757 17.2295 57.0587 13.7756 57.0587C12.2192 57.0587 10.8702 56.6189 9.59542 55.8052C7.17919 54.2585 4.02919 54.4564 1.93166 56.4136C-0.988572 59.1405 -0.536463 63.8831 2.87295 65.9796C5.89695 67.8341 9.72141 68.985 14.6132 68.985C20.2535 68.985 24.9081 67.2404 28.1471 64.0371C31.4379 60.7824 32.9869 56.4869 33.0092 50.4101C36.3667 56.6922 43.2448 61.039 51.7758 61.039C59.7805 61.039 66.3399 57.2126 69.9346 51.5683V61.127C69.9346 64.7261 72.8844 67.6362 76.5162 67.6362H77.2944C79.0362 67.6362 80.5927 66.9032 81.697 65.7377C84.4394 66.9472 87.5597 67.6362 90.9395 67.6362C99.2258 67.6362 105.971 63.524 109.469 57.5498C109.906 60.7238 112.656 63.1721 115.984 63.1721H116.762C118.474 63.1721 120.016 62.4611 121.12 61.3249C123.877 62.549 127.013 63.2381 130.415 63.2381C142.681 63.2381 151.56 54.2439 151.56 43.5051V43.3658C151.56 32.627 142.748 23.772 130.555 23.772H130.563ZM59.899 41.4453C59.899 45.9754 56.8009 49.8091 51.9314 49.8091C47.0619 49.8091 43.8229 45.902 43.8229 41.306V41.1667C43.8229 36.6366 46.921 32.8029 51.7906 32.8029C56.6601 32.8029 59.899 36.7099 59.899 41.306V41.4453ZM99.0628 48.0425C99.0628 52.5726 95.9647 56.4063 91.0951 56.4063C86.2256 56.4063 82.9867 52.4993 82.9867 47.9032V47.7639C82.9867 43.2338 86.0848 39.4001 90.9543 39.4001C95.8238 39.4001 99.0628 43.3071 99.0628 47.9032V48.0425ZM138.53 43.6443C138.53 48.1744 135.432 52.0081 130.563 52.0081C125.693 52.0081 122.454 48.1011 122.454 43.5051V43.3658C122.454 38.8357 125.56 35.002 130.422 35.002C135.284 35.002 138.53 38.909 138.53 43.5051V43.6443Z" fill="white"/>
<path d="M26.2276 17.2554C31.0455 17.2554 34.9512 13.3926 34.9512 8.6277C34.9512 3.86275 31.0455 0 26.2276 0C21.4096 0 17.5039 3.86275 17.5039 8.6277C17.5039 13.3926 21.4096 17.2554 26.2276 17.2554Z" fill="#F93F06"/>
</svg>
